<mxfile host="65bd71144e">
    <diagram id="6I0OCvxSQrVGMHxT2VVA" name="Page-1">
        <mxGraphModel dx="1146" dy="778" grid="1" gridSize="10" guides="1" tooltips="1" connect="1" arrows="1" fold="1" page="1" pageScale="1" pageWidth="850" pageHeight="1100" background="#E6E6E6" math="0" shadow="1">
            <root>
                <mxCell id="0"/>
                <mxCell id="1" parent="0"/>
                <mxCell id="WtVcBaEnB1_Sni-o9t-m-2" value="&lt;font face=&quot;Helvetica&quot; style=&quot;font-size: 24px;&quot;&gt;主协程&lt;/font&gt;" style="ellipse;whiteSpace=wrap;html=1;fillColor=#d5e8d4;strokeColor=#82b366;shadow=1;" parent="1" vertex="1">
                    <mxGeometry x="285" y="180" width="140" height="70" as="geometry"/>
                </mxCell>
                <mxCell id="WtVcBaEnB1_Sni-o9t-m-3" value="&lt;font face=&quot;Helvetica&quot; style=&quot;font-size: 24px;&quot;&gt;主协程&lt;/font&gt;" style="ellipse;whiteSpace=wrap;html=1;fillColor=#d5e8d4;strokeColor=#82b366;shadow=1;" parent="1" vertex="1">
                    <mxGeometry x="840" y="180" width="140" height="70" as="geometry"/>
                </mxCell>
                <mxCell id="WtVcBaEnB1_Sni-o9t-m-4" value="&lt;font face=&quot;Helvetica&quot; style=&quot;font-size: 24px;&quot;&gt;主协程&lt;/font&gt;" style="ellipse;whiteSpace=wrap;html=1;fillColor=#d5e8d4;strokeColor=#82b366;shadow=1;" parent="1" vertex="1">
                    <mxGeometry x="660" y="180" width="140" height="70" as="geometry"/>
                </mxCell>
                <mxCell id="WtVcBaEnB1_Sni-o9t-m-7" value="&lt;font face=&quot;Helvetica&quot; style=&quot;font-size: 24px;&quot;&gt;子协程&lt;/font&gt;" style="ellipse;whiteSpace=wrap;html=1;fillColor=#fff2cc;strokeColor=#d6b656;shadow=1;" parent="1" vertex="1">
                    <mxGeometry x="370" y="310" width="140" height="70" as="geometry"/>
                </mxCell>
                <mxCell id="WtVcBaEnB1_Sni-o9t-m-8" value="&lt;font face=&quot;Helvetica&quot; style=&quot;font-size: 24px;&quot;&gt;子协程&lt;/font&gt;" style="ellipse;whiteSpace=wrap;html=1;fillColor=#fff2cc;strokeColor=#d6b656;shadow=1;" parent="1" vertex="1">
                    <mxGeometry x="570" y="310" width="140" height="70" as="geometry"/>
                </mxCell>
                <mxCell id="WtVcBaEnB1_Sni-o9t-m-9" value="&lt;font face=&quot;Helvetica&quot; style=&quot;font-size: 24px;&quot;&gt;子协程&lt;/font&gt;" style="ellipse;whiteSpace=wrap;html=1;fillColor=#fff2cc;strokeColor=#d6b656;shadow=1;" parent="1" vertex="1">
                    <mxGeometry x="770" y="310" width="140" height="70" as="geometry"/>
                </mxCell>
                <mxCell id="WtVcBaEnB1_Sni-o9t-m-10" value="&lt;font face=&quot;Helvetica&quot; style=&quot;font-size: 24px;&quot;&gt;主协程&lt;/font&gt;" style="ellipse;whiteSpace=wrap;html=1;fillColor=#d5e8d4;strokeColor=#82b366;shadow=1;" parent="1" vertex="1">
                    <mxGeometry x="470" y="180" width="140" height="70" as="geometry"/>
                </mxCell>
                <mxCell id="13" value="开始" style="shape=umlActor;verticalLabelPosition=bottom;verticalAlign=top;html=1;outlineConnect=0;labelBackgroundColor=#2f933f;fontSize=24;" vertex="1" parent="1">
                    <mxGeometry x="230" y="180" width="30" height="60" as="geometry"/>
                </mxCell>
                <mxCell id="19" value="结束" style="shape=umlActor;verticalLabelPosition=bottom;verticalAlign=top;html=1;outlineConnect=0;labelBackgroundColor=#2f933f;fontSize=24;" vertex="1" parent="1">
                    <mxGeometry x="1010" y="185" width="30" height="60" as="geometry"/>
                </mxCell>
                <mxCell id="20" value="" style="endArrow=classic;html=1;labelBackgroundColor=#151d1e;fontSize=24;exitX=0.744;exitY=0.994;exitDx=0;exitDy=0;entryX=0.414;entryY=0;entryDx=0;entryDy=0;entryPerimeter=0;exitPerimeter=0;" edge="1" parent="1" source="WtVcBaEnB1_Sni-o9t-m-2" target="WtVcBaEnB1_Sni-o9t-m-7">
                    <mxGeometry width="50" height="50" relative="1" as="geometry">
                        <mxPoint x="400" y="240" as="sourcePoint"/>
                        <mxPoint x="450" y="190" as="targetPoint"/>
                    </mxGeometry>
                </mxCell>
                <mxCell id="21" value="" style="endArrow=classic;html=1;labelBackgroundColor=#151d1e;fontSize=24;exitX=0.636;exitY=-0.029;exitDx=0;exitDy=0;exitPerimeter=0;" edge="1" parent="1" source="WtVcBaEnB1_Sni-o9t-m-7">
                    <mxGeometry width="50" height="50" relative="1" as="geometry">
                        <mxPoint x="460" y="320" as="sourcePoint"/>
                        <mxPoint x="520" y="250" as="targetPoint"/>
                    </mxGeometry>
                </mxCell>
                <mxCell id="31" value="" style="endArrow=classic;html=1;labelBackgroundColor=#151d1e;fontSize=24;exitX=1;exitY=1;exitDx=0;exitDy=0;entryX=0.357;entryY=0;entryDx=0;entryDy=0;entryPerimeter=0;" edge="1" parent="1" target="WtVcBaEnB1_Sni-o9t-m-8">
                    <mxGeometry width="50" height="50" relative="1" as="geometry">
                        <mxPoint x="570.0031151624373" y="249.9953045358602" as="sourcePoint"/>
                        <mxPoint x="593.2199999999998" y="320.37" as="targetPoint"/>
                    </mxGeometry>
                </mxCell>
                <mxCell id="33" value="" style="endArrow=classic;html=1;labelBackgroundColor=#151d1e;fontSize=24;exitX=0.636;exitY=-0.029;exitDx=0;exitDy=0;exitPerimeter=0;" edge="1" parent="1">
                    <mxGeometry width="50" height="50" relative="1" as="geometry">
                        <mxPoint x="649.04" y="309.9999999999998" as="sourcePoint"/>
                        <mxPoint x="710" y="252.03" as="targetPoint"/>
                    </mxGeometry>
                </mxCell>
                <mxCell id="35" value="" style="endArrow=classic;html=1;labelBackgroundColor=#151d1e;fontSize=24;exitX=0.735;exitY=0.984;exitDx=0;exitDy=0;exitPerimeter=0;entryX=0.442;entryY=0.024;entryDx=0;entryDy=0;entryPerimeter=0;" edge="1" parent="1" source="WtVcBaEnB1_Sni-o9t-m-4" target="WtVcBaEnB1_Sni-o9t-m-9">
                    <mxGeometry width="50" height="50" relative="1" as="geometry">
                        <mxPoint x="780" y="240" as="sourcePoint"/>
                        <mxPoint x="810" y="310" as="targetPoint"/>
                    </mxGeometry>
                </mxCell>
                <mxCell id="36" value="" style="endArrow=classic;html=1;labelBackgroundColor=#151d1e;fontSize=24;exitX=0.615;exitY=-0.035;exitDx=0;exitDy=0;entryX=0.5;entryY=1;entryDx=0;entryDy=0;exitPerimeter=0;" edge="1" parent="1" source="WtVcBaEnB1_Sni-o9t-m-9" target="WtVcBaEnB1_Sni-o9t-m-3">
                    <mxGeometry width="50" height="50" relative="1" as="geometry">
                        <mxPoint x="659.04" y="319.9999999999998" as="sourcePoint"/>
                        <mxPoint x="720" y="262.03" as="targetPoint"/>
                    </mxGeometry>
                </mxCell>
            </root>
        </mxGraphModel>
    </diagram>
</mxfile>